<svg role="img" viewBox="0 0 24 24" xmlns="http://www.w3.org/2000/svg"><title>Amazon SNS</title><path d="M12 0C5.373 0 0 5.373 0 12s5.373 12 12 12 12-5.373 12-12S18.627 0 12 0zm5.894 16.612a.6.6 0 0 1-.848.048 14.63 14.63 0 0 0-2.032-1.476 8.994 8.994 0 0 1-2.874.47 8.986 8.986 0 0 1-2.874-.47 14.655 14.655 0 0 0-2.032 1.476.6.6 0 0 1-.8-.894 15.638 15.638 0 0 1 1.822-1.37A6.617 6.617 0 0 1 8 12c0-2.33 1.34-4.358 3.3-5.373V5.4a.7.7 0 1 1 1.4 0v1.227C14.66 7.642 16 9.67 16 12c0 .676-.116 1.324-.326 1.927a15.675 15.675 0 0 1 1.822 1.369.6.6 0 0 1 .398 1.316zm-5.754-1.758a7.6 7.6 0 0 0 1.86-.234A5.387 5.387 0 0 0 12 7.4a5.387 5.387 0 0 0-1.86 7.22 7.593 7.593 0 0 0 1.86.234zm3.554-.62A5.4 5.4 0 0 0 17.4 12a5.38 5.38 0 0 0-1.994-4.17 6.618 6.618 0 0 1 .288 7.404zm-7.108 0a6.618 6.618 0 0 1 .288-7.404A5.38 5.38 0 0 0 6.6 12a5.4 5.4 0 0 0 1.986 2.234z"/></svg>
