<svg version="1.2" xmlns="http://www.w3.org/2000/svg" viewBox="0 0 504 504" width="504" height="504"><defs><linearGradient id="P" gradientUnits="userSpaceOnUse"/><linearGradient id="g1" x2="1" href="#P" gradientTransform="matrix(0,472.969,-441.13,0,252,15.516)"><stop stop-color="#76a84e"/><stop offset=".55" stop-color="#5a8b38"/><stop offset="1" stop-color="#38592a"/></linearGradient></defs><style>tspan{white-space:pre}.a{fill:url(#g1)}.b{fill:#f7faec}</style><path class="a" d="m114.2 15.5h275.6c10.8 0 21.6 2.2 31.6 6.3 10 4.2 19.1 10.2 26.8 17.9 7.7 7.7 13.8 16.8 17.9 26.8 4.2 10.1 6.3 20.8 6.3 31.7v188.2c0 10.9-2.1 21.6-6.3 31.7-4.1 10-10.2 19.1-17.9 26.8-7.7 7.7-16.8 13.7-26.8 17.9-10 4.2-20.8 6.3-31.6 6.3h-105.7c-4.5 59.7-25.2 110.2-71.1 118.2-24.1 4.6-41.4-10.3-46-36.7-3.4-26.4-4.5-56.3-18.3-81.5h-34.5c-10.8 0-21.6-2.1-31.6-6.3-10-4.2-19.1-10.2-26.8-17.9-7.7-7.7-13.8-16.8-17.9-26.8-4.2-10.1-6.3-20.8-6.3-31.7v-188.2c0-10.9 2.1-21.6 6.3-31.7 4.1-10 10.2-19.1 17.9-26.8 7.7-7.7 16.8-13.7 26.8-17.9 10-4.1 20.8-6.3 31.6-6.3z"/><path fill-rule="evenodd" class="b" d="m209.5 132.6h94.2c13.3 0 24.1 10.8 24.1 24.1 0 13.3-10.8 24.1-24.1 24.1h-94.2c-13.3 0-24.1-10.8-24.1-24.1 0-13.3 10.8-24.1 24.1-24.1z"/><path fill-rule="evenodd" class="b" d="m154.4 229h195.2c13.3 0 24.1 10.8 24.1 24.1 0 13.4-10.8 24.2-24.1 24.2h-195.2c-13.3 0-24.1-10.8-24.1-24.2 0-13.3 10.8-24.1 24.1-24.1z"/><text transform="translate(807,172)"></text><text transform="translate(1322,-609)"></text></svg>