<svg width="2103" height="300" viewBox="0 0 2103 300" fill="none" xmlns="http://www.w3.org/2000/svg">
<path d="M305.852 295.402L269.972 220.855L310.38 146.656L320.831 167.557L406.177 0.348633H505.805L359.498 295.402H305.852Z" fill="#FF762E"/>
<path d="M150.438 295.401H198.56L319.089 94.0547L272.41 0L174.524 155.364L96.4931 0H0L150.438 295.401Z" fill="#FF762E"/>
<path d="M2053.2 32.3259H2061.81V83.9902H2095.66V96.9063H2061.81V203.946C2061.81 206.223 2062.21 208.351 2063 210.33C2063.89 212.31 2065.03 214.042 2066.41 215.526C2067.9 217.011 2069.63 218.199 2071.61 219.089C2073.59 219.881 2075.77 220.277 2078.14 220.277C2081.51 220.277 2084.58 219.436 2087.35 217.753C2090.12 216.071 2092.54 213.992 2094.62 211.518L2102.19 216.566C2098.04 223.593 2092.64 229.135 2086.01 233.193C2079.38 237.251 2071.17 239.28 2061.37 239.28C2056.32 239.28 2051.92 238.389 2048.15 236.608C2044.39 234.925 2041.28 232.55 2038.8 229.482C2036.43 226.315 2034.64 222.603 2033.46 218.347C2032.27 213.992 2031.68 209.192 2031.68 203.946V96.9063H2005.25V91.2648L2031.68 83.9902V40.7882L2053.2 32.3259Z" fill="black"/>
<path d="M1898.36 239.28C1886.68 239.28 1875.94 237.251 1866.14 233.193C1856.34 229.135 1847.88 223.642 1840.75 216.714C1833.63 209.687 1828.04 201.521 1823.98 192.218C1820.02 182.815 1818.04 172.769 1818.04 162.08C1818.04 150.896 1820.02 140.405 1823.98 130.607C1828.04 120.709 1833.63 112.098 1840.75 104.774C1847.88 97.4504 1856.34 91.7099 1866.14 87.553C1875.94 83.2971 1886.68 81.1692 1898.36 81.1692C1909.94 81.1692 1920.58 83.0992 1930.28 86.9592C1940.07 90.8191 1948.54 96.1142 1955.66 102.844C1962.79 109.575 1968.33 117.493 1972.29 126.598C1976.35 135.605 1978.38 145.304 1978.38 155.696C1978.38 167.177 1976.35 178.015 1972.29 188.209C1968.33 198.305 1962.79 207.163 1955.66 214.784C1948.54 222.306 1940.07 228.294 1930.28 232.748C1920.58 237.102 1909.94 239.28 1898.36 239.28ZM1904.15 228.145C1910.09 228.145 1915.53 226.611 1920.48 223.543C1925.43 220.475 1929.68 216.367 1933.25 211.221C1936.81 205.975 1939.58 199.938 1941.56 193.109C1943.54 186.279 1944.53 179.054 1944.53 171.433C1944.53 160.447 1943.59 150.154 1941.71 140.553C1939.83 130.953 1936.76 122.59 1932.5 115.464C1928.25 108.337 1922.7 102.745 1915.88 98.6875C1909.05 94.5307 1900.73 92.4522 1890.93 92.4522C1885.89 92.4522 1880.99 93.9368 1876.24 96.906C1871.49 99.7763 1867.28 103.735 1863.62 108.783C1860.05 113.831 1857.18 119.769 1855.01 126.598C1852.83 133.328 1851.74 140.504 1851.74 148.125C1851.74 159.21 1852.88 169.602 1855.16 179.302C1857.53 189.001 1860.95 197.463 1865.4 204.688C1869.95 211.914 1875.44 217.654 1881.88 221.91C1888.41 226.067 1895.83 228.145 1904.15 228.145Z" fill="black"/>
<path d="M1627.27 39.1548H1706.55C1717.04 39.1548 1726.64 40.3425 1735.35 42.7178C1744.16 44.9942 1751.68 48.2604 1757.91 52.5162C1764.25 56.7721 1769.15 61.8693 1772.61 67.8077C1776.08 73.7461 1777.81 80.2784 1777.81 87.4045C1777.81 92.8481 1777.26 97.6978 1776.17 101.954C1775.09 106.21 1773.16 110.168 1770.38 113.83C1767.61 117.394 1763.9 120.808 1759.25 124.074C1754.7 127.241 1748.91 130.508 1741.88 133.873V134.467C1748.91 135.555 1755.24 137.436 1760.88 140.108C1766.52 142.78 1771.32 146.195 1775.28 150.352C1779.34 154.41 1782.46 159.21 1784.64 164.753C1786.81 170.196 1787.9 176.184 1787.9 182.716C1787.9 190.139 1786.27 197.117 1783 203.649C1779.84 210.082 1775.23 215.724 1769.2 220.574C1763.26 225.324 1756.03 229.085 1747.52 231.857C1739.11 234.628 1729.66 236.014 1719.17 236.014H1627.27V39.1548ZM1660.37 127.786H1702.54C1709.17 127.786 1715.06 126.846 1720.2 124.965C1725.35 123.085 1729.71 120.511 1733.27 117.245C1736.83 113.88 1739.5 109.921 1741.29 105.368C1743.17 100.716 1744.11 95.7183 1744.11 90.3737C1744.11 84.6332 1743.02 79.4371 1740.84 74.7853C1738.66 70.0346 1735.25 65.9767 1730.6 62.6116C1726.04 59.2465 1720.2 56.6731 1713.08 54.8916C1706.05 53.1101 1697.59 52.2193 1687.69 52.2193H1660.37V127.786ZM1660.37 221.613H1696.15C1705.75 221.613 1714.07 220.722 1721.1 218.941C1728.22 217.06 1734.06 214.487 1738.61 211.221C1743.27 207.856 1746.68 203.847 1748.86 199.195C1751.13 194.544 1752.27 189.446 1752.27 183.904C1752.27 177.669 1751.28 171.879 1749.3 166.534C1747.32 161.189 1744.06 156.587 1739.5 152.727C1735.05 148.768 1729.16 145.651 1721.84 143.374C1714.61 141.098 1705.7 139.96 1695.11 139.96H1660.37V221.613Z" fill="black"/>
<path d="M1517.26 81.1692H1521.86L1525.87 112.197C1528.24 107.645 1531.21 103.488 1534.78 99.7268C1538.34 95.9658 1542.25 92.6996 1546.51 89.9284C1550.86 87.1571 1555.41 85.0292 1560.16 83.5446C1565.01 81.961 1569.91 81.1692 1574.86 81.1692C1579.32 81.1692 1583.67 81.763 1587.93 82.9507C1592.28 84.1384 1596.34 86.0189 1600.1 88.5922L1590.6 113.979C1588.62 111.802 1586.54 110.07 1584.36 108.783C1582.19 107.397 1579.96 106.358 1577.68 105.665C1575.41 104.873 1573.08 104.379 1570.7 104.181C1568.33 103.983 1565.95 103.884 1563.58 103.884C1559.82 103.884 1556.11 104.428 1552.44 105.517C1548.88 106.605 1545.47 108.239 1542.2 110.416C1538.93 112.494 1535.92 115.216 1533.14 118.581C1530.37 121.847 1527.95 125.707 1525.87 130.161V236.014H1495.73V89.483L1517.26 81.1692Z" fill="black"/>
<path d="M1380.97 239.28C1370.68 239.28 1360.98 237.35 1351.87 233.49C1342.87 229.63 1335 224.384 1328.27 217.753C1321.54 211.122 1316.19 203.352 1312.23 194.445C1308.37 185.438 1306.44 175.887 1306.44 165.792C1306.44 153.618 1308.23 142.384 1311.79 132.091C1315.35 121.699 1320.4 112.742 1326.93 105.22C1333.46 97.6978 1341.28 91.8089 1350.39 87.553C1359.59 83.2971 1369.84 81.1692 1381.12 81.1692C1391.02 81.1692 1400.12 82.9507 1408.44 86.5138C1416.75 89.9779 1423.88 94.6791 1429.82 100.618C1435.85 106.457 1440.5 113.237 1443.77 120.957C1447.14 128.677 1448.82 136.743 1448.82 145.156H1335.54C1335.54 155.35 1336.83 164.802 1339.4 173.512C1342.08 182.221 1345.79 189.743 1350.54 196.078C1355.29 202.412 1360.93 207.361 1367.46 210.924C1373.99 214.487 1381.17 216.268 1388.99 216.268C1395.52 216.268 1401.81 215.229 1407.84 213.151C1413.88 210.973 1419.32 208.153 1424.17 204.688C1429.12 201.224 1433.33 197.265 1436.79 192.812C1440.26 188.358 1442.68 183.756 1444.07 179.005L1452.83 182.865C1450.65 190.684 1447.14 198.008 1442.29 204.837C1437.44 211.666 1431.75 217.654 1425.21 222.801C1418.78 227.848 1411.75 231.857 1404.13 234.826C1396.51 237.795 1388.79 239.28 1380.97 239.28ZM1410.96 132.982C1410.96 127.241 1409.92 121.897 1407.84 116.948C1405.86 112 1403.09 107.744 1399.53 104.181C1395.97 100.519 1391.81 97.6483 1387.06 95.5699C1382.31 93.4914 1377.21 92.4522 1371.77 92.4522C1367.21 92.4522 1362.86 93.4914 1358.7 95.5699C1354.55 97.5494 1350.83 100.37 1347.57 104.032C1344.3 107.595 1341.58 111.851 1339.4 116.8C1337.32 121.748 1336.09 127.093 1335.69 132.834L1410.96 132.982Z" fill="black"/>
<path d="M1150.12 81.1692H1158.73V115.315C1161.79 111.455 1165.16 107.496 1168.82 103.438C1172.58 99.3804 1176.69 95.7183 1181.14 92.4522C1185.7 89.0871 1190.69 86.3653 1196.14 84.2869C1201.58 82.2084 1207.52 81.1692 1213.95 81.1692C1222.96 81.1692 1231.13 83.0497 1238.45 86.8107C1245.77 90.5717 1252.01 95.6688 1257.16 102.102C1262.4 108.535 1266.41 116.107 1269.18 124.817C1272.05 133.427 1273.49 142.632 1273.49 152.43C1273.49 165 1271.75 176.629 1268.29 187.319C1264.83 197.909 1259.88 207.064 1253.44 214.784C1247.01 222.504 1239.19 228.541 1229.99 232.896C1220.78 237.152 1210.49 239.28 1199.11 239.28C1194.95 239.28 1191.04 239.032 1187.38 238.538C1183.82 238.142 1180.4 237.498 1177.14 236.608C1173.97 235.717 1170.85 234.579 1167.78 233.193C1164.81 231.807 1161.79 230.125 1158.73 228.145V300H1128.44V89.6314L1150.12 81.1692ZM1158.73 195.039C1158.73 199.591 1159.72 203.897 1161.7 207.955C1163.67 211.914 1166.45 215.427 1170.01 218.495C1173.57 221.465 1177.83 223.84 1182.78 225.621C1187.73 227.304 1193.17 228.145 1199.11 228.145C1204.75 228.145 1210.04 226.71 1214.99 223.84C1220.04 220.97 1224.4 216.912 1228.06 211.666C1231.82 206.322 1234.74 199.987 1236.82 192.663C1238.99 185.339 1240.08 177.223 1240.08 168.316C1240.08 157.132 1239.09 147.383 1237.11 139.069C1235.13 130.656 1232.36 123.678 1228.8 118.136C1225.34 112.593 1221.18 108.436 1216.33 105.665C1211.58 102.894 1206.33 101.508 1200.59 101.508C1196.24 101.508 1192.03 102.201 1187.97 103.587C1184.01 104.873 1180.25 106.655 1176.69 108.931C1173.13 111.208 1169.81 113.831 1166.74 116.8C1163.77 119.769 1161.1 122.887 1158.73 126.153V195.039Z" fill="black"/>
<path d="M1027.64 228.739C1031.69 228.739 1035.45 228.145 1038.92 226.958C1042.38 225.671 1045.35 223.988 1047.83 221.91C1050.4 219.831 1052.38 217.456 1053.76 214.784C1055.15 212.013 1055.84 209.192 1055.84 206.322C1055.84 201.67 1054.66 197.612 1052.28 194.148C1050 190.684 1046.94 187.615 1043.08 184.943C1039.31 182.172 1035.01 179.648 1030.16 177.372C1025.31 175.095 1020.36 172.769 1015.31 170.394C1010.27 167.92 1005.32 165.346 1000.47 162.674C995.618 159.903 991.263 156.686 987.403 153.024C983.642 149.362 980.574 145.156 978.198 140.405C975.922 135.555 974.784 129.914 974.784 123.48C974.784 117.443 976.07 111.851 978.644 106.704C981.217 101.459 984.78 96.9555 989.333 93.1945C993.984 89.4335 999.478 86.5138 1005.81 84.4353C1012.15 82.2579 1019.07 81.1692 1026.6 81.1692C1031.64 81.1692 1036.35 81.5156 1040.7 82.2084C1045.05 82.9012 1049.31 84.2374 1053.47 86.2169C1057.72 88.1963 1061.93 91.0666 1066.09 94.8276C1070.24 98.4896 1074.65 103.29 1079.3 109.228L1068.17 119.175C1062.42 109.773 1055.99 102.795 1048.87 98.2422C1041.84 93.5904 1034.32 91.2645 1026.3 91.2645C1021.94 91.2645 1017.99 91.8089 1014.42 92.8976C1010.86 93.8873 1007.79 95.3224 1005.22 97.2029C1002.74 98.9845 1000.76 101.112 999.28 103.587C997.894 106.061 997.201 108.684 997.201 111.455C997.201 116.008 998.438 119.967 1000.91 123.332C1003.49 126.697 1006.85 129.765 1011.01 132.537C1015.16 135.209 1019.87 137.683 1025.11 139.96C1030.46 142.236 1035.85 144.562 1041.29 146.937C1046.84 149.313 1052.23 151.886 1057.48 154.657C1062.82 157.428 1067.57 160.645 1071.73 164.307C1075.89 167.87 1079.2 172.027 1081.68 176.778C1084.25 181.529 1085.54 187.071 1085.54 193.405C1085.54 199.839 1084.35 205.876 1081.97 211.518C1079.6 217.06 1075.98 221.91 1071.13 226.067C1066.38 230.125 1060.4 233.341 1053.17 235.717C1045.95 238.092 1037.43 239.28 1027.64 239.28C1023.18 239.28 1018.58 238.933 1013.83 238.241C1009.18 237.548 1004.48 236.212 999.725 234.232C994.974 232.154 990.223 229.283 985.473 225.621C980.722 221.959 976.07 217.159 971.517 211.221L983.84 200.086C987.502 205.233 991.015 209.637 994.38 213.299C997.745 216.862 1001.16 219.831 1004.62 222.207C1008.19 224.483 1011.8 226.166 1015.46 227.254C1019.22 228.244 1023.28 228.739 1027.64 228.739Z" fill="black"/>
<path d="M896.248 89.7802L917.478 81.1695H926.237V236.014H896.248V89.7802ZM893.872 25.7937C893.872 23.4183 894.318 21.1914 895.209 19.113C896.099 17.0345 897.337 15.2035 898.92 13.6199C900.504 12.0363 902.335 10.7992 904.413 9.90841C906.492 9.01765 908.719 8.57227 911.094 8.57227C913.469 8.57227 915.696 9.01765 917.775 9.90841C919.853 10.7992 921.684 12.0363 923.268 13.6199C924.851 15.2035 926.088 17.0345 926.979 19.113C927.87 21.1914 928.315 23.4183 928.315 25.7937C928.315 28.1691 927.87 30.396 926.979 32.4744C926.088 34.5529 924.851 36.3839 923.268 37.9675C921.684 39.5511 919.853 40.7882 917.775 41.679C915.696 42.5698 913.469 43.0151 911.094 43.0151C908.719 43.0151 906.492 42.5698 904.413 41.679C902.335 40.7882 900.504 39.5511 898.92 37.9675C897.337 36.3839 896.099 34.5529 895.209 32.4744C894.318 30.396 893.872 28.1691 893.872 25.7937Z" fill="black"/>
<path d="M629.167 39.1548L687.957 188.803L739.622 53.7039L792.919 189.397L850.373 39.1548H866.407L790.692 237.647H780.894L732.199 114.87L685.582 237.647H674.299L596.06 39.1548H629.167Z" fill="black"/>
</svg>
