<svg width="600" height="150" viewBox="0 0 600 150" fill="none" xmlns="http://www.w3.org/2000/svg">
<path d="M572.288 95.3549L573 102.072C570.829 102.411 568.861 102.682 567.097 102.886C565.333 103.089 563.773 103.191 562.416 103.191C560.109 103.191 558.21 102.92 556.717 102.377C555.292 101.766 554.173 100.884 553.359 99.7309C552.545 98.5097 551.968 96.9832 551.629 95.1514C551.357 93.2517 551.188 90.9789 551.12 88.3329V58.0061H543.08V50.577H551.12V34.6025H560.686V50.577H572.898V58.0061H560.686V88.3329C560.686 89.8255 560.72 91.0467 560.788 91.9966C560.924 92.8785 561.364 93.5909 562.111 94.1337C562.857 94.6086 564.01 94.9478 565.571 95.1514C567.199 95.287 569.438 95.3549 572.288 95.3549Z" fill="#1A1A1A"/>
<path d="M521.368 49.8652C525.778 50.0688 529.713 51.1204 533.174 53.02C534.666 53.8342 536.091 54.8858 537.448 56.1748C538.872 57.3961 540.128 58.9565 541.213 60.8562C542.367 62.688 543.282 64.8929 543.961 67.4711C544.639 69.9813 544.979 72.8987 544.979 76.2231C544.979 79.6154 544.639 82.6006 543.961 85.1787C543.282 87.7568 542.367 89.9957 541.213 91.8954C540.128 93.795 538.872 95.4233 537.448 96.7802C536.091 98.0693 534.666 99.1548 533.174 100.037C529.713 102.004 525.778 103.124 521.368 103.395C516.959 103.124 513.023 102.004 509.563 100.037C508.071 99.1548 506.612 98.0693 505.187 96.7802C503.83 95.4233 502.575 93.795 501.422 91.8954C500.336 89.9957 499.454 87.7568 498.776 85.1787C498.098 82.6006 497.758 79.6154 497.758 76.2231C497.758 72.8987 498.098 69.9813 498.776 67.4711C499.454 64.8929 500.336 62.688 501.422 60.8562C502.575 58.9565 503.83 57.3961 505.187 56.1748C506.612 54.8858 508.071 53.8342 509.563 53.02C513.023 51.1204 516.959 50.0688 521.368 49.8652ZM506.816 76.3249C506.816 79.5136 507.223 82.3292 508.037 84.7716C508.851 87.1462 509.937 89.1476 511.293 90.7759C512.718 92.3363 514.279 93.5236 515.975 94.3378C517.739 95.1519 519.537 95.559 521.368 95.559C523.2 95.559 524.964 95.1519 526.66 94.3378C528.424 93.5236 529.985 92.3363 531.342 90.7759C532.699 89.1476 533.784 87.1462 534.598 84.7716C535.48 82.3292 535.921 79.4797 535.921 76.2231C535.921 73.1701 535.514 70.4902 534.7 68.1834C533.886 65.8767 532.8 63.977 531.443 62.4844C530.087 60.924 528.526 59.7706 526.762 59.0243C525.066 58.278 523.302 57.9049 521.47 57.9049C519.638 57.9049 517.84 58.312 516.077 59.1261C514.313 59.8724 512.752 61.0258 511.395 62.5862C510.038 64.0788 508.919 65.9785 508.037 68.2852C507.223 70.592 506.816 73.2718 506.816 76.3249Z" fill="#1A1A1A"/>
<path d="M470.267 49.8654C474.745 50.0689 478.747 51.1205 482.275 53.0202C483.768 53.8343 485.227 54.8859 486.651 56.175C488.144 57.3962 489.433 58.9566 490.519 60.8563C491.672 62.6881 492.588 64.8931 493.266 67.4712C493.945 69.9815 494.284 72.8988 494.284 76.2232V76.9356C494.284 80.26 493.945 83.2113 493.266 85.7894C492.588 88.2997 491.672 90.5046 490.519 92.4043C489.433 94.2361 488.144 95.7966 486.651 97.0856C485.227 98.3068 483.768 99.3245 482.275 100.139C478.747 102.106 474.745 103.192 470.267 103.395C468.435 103.327 466.603 102.988 464.771 102.378C463.211 101.835 461.549 100.953 459.785 99.7316C458.021 98.5104 456.392 96.8142 454.9 94.6432V102.581H445.334V35.0059H454.9V58.5156C456.392 56.2767 458.021 54.5806 459.785 53.4272C461.549 52.2739 463.211 51.4258 464.771 50.883C466.603 50.2724 468.435 49.9332 470.267 49.8654ZM485.023 76.2232C485.023 73.1702 484.582 70.4903 483.7 68.1836C482.886 65.8768 481.767 63.9772 480.342 62.4846C478.985 60.9241 477.39 59.7708 475.559 59.0245C473.795 58.2782 471.963 57.905 470.063 57.905C468.164 57.905 466.298 58.2782 464.466 59.0245C462.702 59.7708 461.108 60.9241 459.683 62.4846C458.258 63.9772 457.105 65.8768 456.223 68.1836C455.341 70.4903 454.9 73.1702 454.9 76.2232V76.9356C454.9 79.9886 455.341 82.6685 456.223 84.9753C457.105 87.2141 458.258 89.1138 459.683 90.6743C461.108 92.1669 462.702 93.3202 464.466 94.1344C466.298 94.8807 468.164 95.2538 470.063 95.2538C471.963 95.2538 473.795 94.8807 475.559 94.1344C477.39 93.3202 478.985 92.1669 480.342 90.6743C481.767 89.1138 482.886 87.2141 483.7 84.9753C484.582 82.6685 485.023 79.9886 485.023 76.9356V76.2232Z" fill="#1A1A1A"/>
<path d="M373.177 82.1377C373.897 84.7063 374.904 86.8901 376.196 88.6889C377.489 90.4877 378.972 91.95 380.646 93.0758C382.377 94.1245 384.198 94.8515 386.109 95.2567C388.087 95.6521 390.083 95.702 392.097 95.4063C394.648 95.0319 397.119 94.1205 399.513 92.672C401.896 91.1564 403.956 89.0712 405.692 86.4163L411.178 90.8568C409.272 94.2223 406.653 96.9382 403.322 99.0043C400.048 100.993 396.498 102.269 392.672 102.831C389.517 103.294 386.351 103.21 383.172 102.579C379.994 101.949 377.039 100.737 374.307 98.9435C371.642 97.1403 369.325 94.669 367.356 91.5295C365.454 88.3801 364.172 84.5567 363.512 80.0593C363.029 76.7701 362.941 73.8344 363.248 71.2522C363.545 68.6029 364.092 66.2597 364.89 64.2225C365.756 62.1754 366.766 60.4157 367.921 58.9432C369.144 57.4609 370.434 56.2086 371.793 55.1863C374.93 52.7371 378.661 51.058 382.985 50.1491C386.975 49.7691 390.732 50.1432 394.258 51.2714C395.766 51.7357 397.275 52.4399 398.785 53.384C400.286 54.2609 401.725 55.4211 403.102 56.8646C404.47 58.241 405.686 59.9826 406.749 62.0893C407.87 64.1191 408.772 66.524 409.454 69.3038C409.6 69.831 409.712 70.3631 409.791 70.9001C409.927 71.3601 410.035 71.8586 410.113 72.3956L410.734 76.6246L373.177 82.1377ZM400.392 70.6341C399.769 68.257 398.854 66.2312 397.648 64.5567C396.51 62.8724 395.219 61.5533 393.776 60.5994C392.323 59.5784 390.781 58.8791 389.148 58.5016C387.583 58.1142 385.994 58.0388 384.383 58.2753C382.772 58.5118 381.239 59.0454 379.784 59.8762C378.329 60.7069 377.019 61.825 375.853 63.2303C374.755 64.6258 373.869 66.2987 373.196 68.2491C372.512 70.1323 372.18 72.3068 372.199 74.7726L400.392 70.6341Z" fill="#1A1A1A"/>
<path d="M335.5 49.7637C339.978 49.9672 343.98 51.0527 347.508 53.0202C349.001 53.8344 350.46 54.886 351.884 56.175C353.377 57.3963 354.666 58.9567 355.752 60.8564C356.905 62.6882 357.821 64.8592 358.499 67.3695C359.178 69.8798 359.517 72.7971 359.517 76.1215V76.9357C359.517 80.2601 359.178 83.2114 358.499 85.7895C357.821 88.2998 356.905 90.5047 355.752 92.4044C354.666 94.2362 353.377 95.7967 351.884 97.0857C350.46 98.3069 349.001 99.3246 347.508 100.139C343.98 102.038 339.978 103.09 335.5 103.294C333.668 103.226 331.836 102.886 330.004 102.276C328.444 101.733 326.782 100.885 325.018 99.7317C323.254 98.5105 321.625 96.8143 320.133 94.6433V127.005H310.567V50.5778H320.133V58.5157C321.625 56.2768 323.254 54.5807 325.018 53.4273C326.782 52.2061 328.444 51.3241 330.004 50.7814C331.836 50.1707 333.668 49.8315 335.5 49.7637ZM350.256 76.1215C350.256 73.0685 349.815 70.4225 348.933 68.1837C348.119 65.8769 347 63.9772 345.575 62.4847C344.218 60.9242 342.624 59.7708 340.792 59.0245C339.028 58.2782 337.196 57.9051 335.296 57.9051C333.397 57.9051 331.531 58.2782 329.699 59.0245C327.935 59.7708 326.341 60.9242 324.916 62.4847C323.491 63.9772 322.338 65.8769 321.456 68.1837C320.574 70.4225 320.133 73.0685 320.133 76.1215V76.9357C320.133 79.9887 320.574 82.6686 321.456 84.9754C322.338 87.2142 323.491 89.1139 324.916 90.6744C326.341 92.1669 327.935 93.2864 329.699 94.0327C331.531 94.779 333.397 95.1521 335.296 95.1521C337.196 95.1521 339.028 94.779 340.792 94.0327C342.624 93.2864 344.218 92.1669 345.575 90.6744C347 89.1139 348.119 87.2142 348.933 84.9754C349.815 82.6686 350.256 79.9887 350.256 76.9357V76.1215Z" fill="#1A1A1A"/>
<path d="M281.579 63.2985C281.579 64.6554 282.19 65.8088 283.411 66.7586C284.7 67.7085 286.294 68.6244 288.194 69.5064C290.094 70.3883 292.163 71.3382 294.402 72.3559C296.641 73.3057 298.71 74.493 300.61 75.9177C302.509 77.2746 304.07 78.9708 305.291 81.0061C306.58 82.9736 307.225 85.3821 307.225 88.2316C307.225 90.8098 306.716 93.0826 305.698 95.0501C304.68 96.9497 303.324 98.5441 301.627 99.8332C299.999 101.054 298.066 101.97 295.827 102.581C293.656 103.259 291.383 103.599 289.008 103.599C285.005 103.599 281.104 102.717 277.305 100.953C273.573 99.1886 270.656 96.5088 268.553 92.913L274.048 86.7051C275.948 89.7582 278.153 91.9971 280.663 93.4218C283.174 94.7787 285.616 95.4572 287.991 95.4572C290.365 95.4572 292.4 94.8126 294.097 93.5236C295.793 92.2345 296.641 90.4705 296.641 88.2316C296.641 86.2641 295.996 84.7037 294.707 83.5503C293.486 82.3969 291.959 81.4132 290.128 80.599C288.296 79.7171 286.26 78.9029 284.022 78.1566C281.851 77.3425 279.849 76.3587 278.017 75.2053C276.185 73.9841 274.625 72.4576 273.336 70.6258C272.115 68.7261 271.504 66.2498 271.504 63.1967C271.504 60.9579 271.945 58.9903 272.827 57.2942C273.777 55.5981 274.998 54.2073 276.491 53.1217C278.051 51.9684 279.815 51.1203 281.783 50.5775C283.75 49.9669 285.786 49.6616 287.889 49.6616C290.942 49.6616 293.893 50.2383 296.743 51.3917C299.66 52.4772 302.034 54.1733 303.866 56.4801L298.473 62.0773C296.776 60.1776 295.046 58.7868 293.282 57.9048C291.518 57.0228 289.856 56.5818 288.296 56.5818C286.328 56.5818 284.7 57.1924 283.411 58.4137C282.19 59.567 281.579 61.1953 281.579 63.2985Z" fill="#1A1A1A"/>
<path d="M259.889 47.5739C258.329 47.5739 257.006 47.0311 255.921 45.9456C254.835 44.86 254.292 43.5371 254.292 41.9766C254.292 40.4162 254.835 39.0932 255.921 38.0077C257.006 36.9222 258.329 36.3794 259.889 36.3794C261.45 36.3794 262.773 36.9222 263.858 38.0077C265.012 39.0932 265.588 40.4162 265.588 41.9766C265.588 43.5371 265.012 44.86 263.858 45.9456C262.773 47.0311 261.45 47.5739 259.889 47.5739ZM255.106 102.58V50.5768H264.774V102.58H255.106Z" fill="#1A1A1A"/>
<path d="M250.175 50.5771L237.094 102.581H226.002L214.128 69.8031L202.391 102.581H191.299L178.167 50.5771H188.242L197.394 89.3858L208.701 57.8027H219.692L230.661 88.8739L240.1 50.5771H250.175Z" fill="#1A1A1A"/>
<path d="M436.209 50.6791C438.138 50.2573 439.932 50.0768 441.593 50.1367V58.8967C440.516 58.9788 439.434 59.0883 438.346 59.2277C435.768 59.4991 433.428 60.2458 431.325 61.4669C429.222 62.6203 427.491 64.35 426.134 66.6568C424.777 68.9635 424.099 72.1184 424.099 76.1213V102.581H414.533V50.5776H424.099V59.6345C425.659 56.7852 427.525 54.7164 429.696 53.4273C431.935 52.0704 434.106 51.154 436.209 50.6791Z" fill="#1A1A1A"/>
<path d="M85.906 13.2728C102.65 12.7884 132.922 11.2974 147.418 26.9836C153.013 33.0374 157.317 43.0302 158.956 54.8483C160.779 67.9996 160.345 82.9835 156.619 94.925C152.975 106.604 146.971 114.491 140.043 117.924C139.922 117.984 139.845 118.106 139.845 118.241C139.841 119.678 138.22 136.59 138 136.5C127.5 133.5 114.907 129.349 103.574 126.219C102.28 125.86 98.8279 126.078 97.416 126.104C94.1278 126.183 90.8405 126.228 87.5523 126.24C75.2311 126.23 55.7957 124.07 44.7454 113.596C42.5988 111.562 40.6172 108.964 38.8581 105.884C33.6638 96.8467 31.2432 84.3742 31.016 71.2667C30.7885 58.1278 32.9771 45.1981 37.823 35.5728C48.0603 15.2372 71.956 13.935 85.906 13.2728ZM82.21 55.6156C82.2076 55.5838 82.2007 55.552 82.19 55.5219C79.3862 47.7389 74.5237 47.1732 69.9146 47.8184C69.8941 47.8212 69.8744 47.8259 69.8548 47.8324C67.3356 48.6586 64.1741 50.1724 62.6781 54.5166C61.8181 57.0191 62.0069 82.9792 62.4786 86.6884C62.7213 88.5939 64.1253 90.5348 64.9941 91.4595C67.7452 94.3863 71.2536 94.8349 74.3373 94.3225C77.1112 93.5317 80.0359 92.1752 81.795 87.6434C81.935 87.2804 82.0707 86.9081 82.1986 86.5272C82.2095 86.4948 82.2156 86.4612 82.2166 86.4271C82.4245 80.0012 82.3841 73.4969 82.3682 67.0541C82.3598 63.6909 82.4389 58.839 82.21 55.6156ZM128.66 57.0374C127.916 47.9418 119.96 47.3969 116.448 47.7898C116.425 47.7922 116.405 47.7965 116.384 47.8032C113.573 48.6874 108.975 50.7319 108.716 57.4804C108.665 61.8357 108.675 66.5083 108.765 70.8637C108.853 75.1575 108.435 81.1692 108.784 85.2378C109.528 93.9487 117.485 94.8768 120.843 94.31C123.579 93.5367 128.424 91.2656 128.707 84.7594C128.776 80.5007 128.848 75.8107 128.763 71.5627C128.676 67.1388 129.009 61.2803 128.66 57.0374Z" fill="#FF762E"/>
</svg>
