<svg width="600" height="150" viewBox="0 0 600 150" fill="none" xmlns="http://www.w3.org/2000/svg">
<path d="M82.3523 22.2606C98.317 21.7978 127.182 20.3732 141.004 35.3608C146.338 41.145 150.442 50.6927 152.004 61.9845C153.743 74.5501 153.329 88.8667 149.776 100.276C146.302 111.435 140.577 118.971 133.971 122.251C133.856 122.308 133.782 122.425 133.782 122.554C133.778 123.927 132.233 140.085 132.023 140C122.012 137.133 110.005 133.167 99.1987 130.177C97.9642 129.834 94.6732 130.041 93.3269 130.066C90.1917 130.142 87.0572 130.185 83.922 130.197C72.1738 130.187 53.6424 128.123 43.1061 118.116C41.0594 116.172 39.1699 113.69 37.4926 110.747C32.5399 102.112 30.2319 90.1954 30.0153 77.6717C29.7983 65.1179 31.8851 52.7641 36.5057 43.5675C46.2668 24.1376 69.0511 22.8934 82.3523 22.2606ZM78.8281 62.7176C78.8259 62.6872 78.8193 62.6568 78.809 62.6281C76.1356 55.1917 71.4994 54.6512 67.1046 55.2677C67.0851 55.2704 67.0662 55.2749 67.0476 55.2811C64.6456 56.0705 61.6311 57.5169 60.2047 61.6676C59.3847 64.0587 59.5647 88.8625 60.0145 92.4066C60.2459 94.2272 61.5846 96.0816 62.413 96.9651C65.0361 99.7616 68.3813 100.19 71.3216 99.7006C73.9665 98.9451 76.7552 97.649 78.4325 93.319C78.5659 92.9722 78.6953 92.6164 78.8172 92.2525C78.8277 92.2215 78.8334 92.1895 78.8345 92.1568C79.0327 86.0172 78.9942 79.8025 78.979 73.6467C78.971 70.4333 79.0464 65.7975 78.8281 62.7176ZM123.118 64.0761C122.408 55.3856 114.822 54.865 111.473 55.2404C111.452 55.2426 111.433 55.2468 111.413 55.2531C108.732 56.098 104.349 58.0515 104.102 64.4994C104.053 68.6607 104.062 73.1252 104.148 77.2866C104.231 81.3892 103.834 87.1331 104.166 91.0205C104.875 99.3435 112.463 100.23 115.665 99.6887C118.273 98.9498 122.893 96.7799 123.162 90.5634C123.228 86.4945 123.296 82.0133 123.216 77.9544C123.133 73.7276 123.45 68.1301 123.118 64.0761Z" fill="#FF762E"/>
<path d="M565.12 95.3549L565.833 102.072C563.662 102.411 561.694 102.682 559.93 102.886C558.166 103.089 556.606 103.191 555.249 103.191C552.942 103.191 551.042 102.92 549.55 102.377C548.125 101.766 547.006 100.884 546.191 99.7309C545.377 98.5097 544.801 96.9832 544.461 95.1514C544.19 93.2517 544.02 90.9789 543.952 88.3329V58.0061H535.913V50.577H543.952V34.6025H553.519V50.577H565.731V58.0061H553.519V88.3329C553.519 89.8255 553.553 91.0467 553.62 91.9966C553.756 92.8785 554.197 93.5909 554.943 94.1337C555.69 94.6086 556.843 94.9478 558.404 95.1514C560.032 95.287 562.271 95.3549 565.12 95.3549Z" fill="#FF762E"/>
<path d="M514.201 49.8652C518.611 50.0688 522.546 51.1204 526.006 53.02C527.499 53.8342 528.923 54.8858 530.28 56.1748C531.705 57.3961 532.96 58.9565 534.046 60.8562C535.199 62.688 536.115 64.8929 536.794 67.4711C537.472 69.9813 537.811 72.8987 537.811 76.2231C537.811 79.6154 537.472 82.6006 536.794 85.1787C536.115 87.7568 535.199 89.9957 534.046 91.8954C532.96 93.795 531.705 95.4233 530.28 96.7802C528.923 98.0693 527.499 99.1548 526.006 100.037C522.546 102.004 518.611 103.124 514.201 103.395C509.791 103.124 505.856 102.004 502.396 100.037C500.903 99.1548 499.445 98.0693 498.02 96.7802C496.663 95.4233 495.408 93.795 494.255 91.8954C493.169 89.9957 492.287 87.7568 491.609 85.1787C490.93 82.6006 490.591 79.6154 490.591 76.2231C490.591 72.8987 490.93 69.9813 491.609 67.4711C492.287 64.8929 493.169 62.688 494.255 60.8562C495.408 58.9565 496.663 57.3961 498.02 56.1748C499.445 54.8858 500.903 53.8342 502.396 53.02C505.856 51.1204 509.791 50.0688 514.201 49.8652ZM499.648 76.3249C499.648 79.5136 500.055 82.3292 500.869 84.7716C501.684 87.1462 502.769 89.1476 504.126 90.7759C505.551 92.3363 507.111 93.5236 508.807 94.3378C510.571 95.1519 512.369 95.559 514.201 95.559C516.033 95.559 517.797 95.1519 519.493 94.3378C521.257 93.5236 522.817 92.3363 524.174 90.7759C525.531 89.1476 526.617 87.1462 527.431 84.7716C528.313 82.3292 528.754 79.4797 528.754 76.2231C528.754 73.1701 528.347 70.4902 527.533 68.1834C526.719 65.8767 525.633 63.977 524.276 62.4844C522.919 60.924 521.359 59.7706 519.595 59.0243C517.899 58.278 516.135 57.9049 514.303 57.9049C512.471 57.9049 510.673 58.312 508.909 59.1261C507.145 59.8724 505.585 61.0258 504.228 62.5862C502.871 64.0788 501.751 65.9785 500.869 68.2852C500.055 70.592 499.648 73.2718 499.648 76.3249Z" fill="#FF762E"/>
<path d="M463.099 49.8654C467.577 50.0689 471.58 51.1205 475.108 53.0202C476.601 53.8343 478.059 54.8859 479.484 56.175C480.977 57.3962 482.266 58.9566 483.351 60.8563C484.505 62.6881 485.42 64.8931 486.099 67.4712C486.777 69.9815 487.117 72.8988 487.117 76.2232V76.9356C487.117 80.26 486.777 83.2113 486.099 85.7894C485.42 88.2997 484.505 90.5046 483.351 92.4043C482.266 94.2361 480.977 95.7966 479.484 97.0856C478.059 98.3068 476.601 99.3245 475.108 100.139C471.58 102.106 467.577 103.192 463.099 103.395C461.268 103.327 459.436 102.988 457.604 102.378C456.043 101.835 454.381 100.953 452.617 99.7316C450.853 98.5104 449.225 96.8142 447.732 94.6432V102.581H438.166V35.0059H447.732V58.5156C449.225 56.2767 450.853 54.5806 452.617 53.4272C454.381 52.2739 456.043 51.4258 457.604 50.883C459.436 50.2724 461.268 49.9332 463.099 49.8654ZM477.856 76.2232C477.856 73.1702 477.415 70.4903 476.533 68.1836C475.719 65.8768 474.599 63.9772 473.174 62.4846C471.818 60.9241 470.223 59.7708 468.391 59.0245C466.627 58.2782 464.796 57.905 462.896 57.905C460.996 57.905 459.13 58.2782 457.299 59.0245C455.535 59.7708 453.94 60.9241 452.516 62.4846C451.091 63.9772 449.937 65.8768 449.055 68.1836C448.173 70.4903 447.732 73.1702 447.732 76.2232V76.9356C447.732 79.9886 448.173 82.6685 449.055 84.9753C449.937 87.2141 451.091 89.1138 452.516 90.6743C453.94 92.1669 455.535 93.3202 457.299 94.1344C459.13 94.8807 460.996 95.2538 462.896 95.2538C464.796 95.2538 466.627 94.8807 468.391 94.1344C470.223 93.3202 471.818 92.1669 473.174 90.6743C474.599 89.1138 475.719 87.2141 476.533 84.9753C477.415 82.6685 477.856 79.9886 477.856 76.9356V76.2232Z" fill="#FF762E"/>
<path d="M366.01 82.1377C366.73 84.7063 367.736 86.8901 369.029 88.6889C370.321 90.4877 371.805 91.95 373.479 93.0758C375.21 94.1245 377.031 94.8515 378.942 95.2567C380.92 95.6521 382.916 95.702 384.929 95.4063C387.48 95.0319 389.952 94.1205 392.345 92.672C394.729 91.1564 396.788 89.0712 398.524 86.4163L404.01 90.8568C402.104 94.2223 399.486 96.9382 396.155 99.0043C392.881 100.993 389.331 102.269 385.505 102.831C382.35 103.294 379.183 103.21 376.005 102.579C372.827 101.949 369.872 100.737 367.14 98.9435C364.475 97.1403 362.158 94.669 360.189 91.5295C358.286 88.3801 357.005 84.5567 356.345 80.0593C355.862 76.7701 355.774 73.8344 356.081 71.2522C356.377 68.6029 356.925 66.2597 357.723 64.2225C358.588 62.1754 359.598 60.4157 360.754 58.9432C361.976 57.4609 363.267 56.2086 364.625 55.1863C367.763 52.7371 371.494 51.058 375.817 50.1491C379.807 49.7691 383.565 50.1432 387.091 51.2714C388.599 51.7357 390.108 52.4399 391.618 53.384C393.118 54.2609 394.557 55.4211 395.935 56.8646C397.303 58.241 398.518 59.9826 399.582 62.0893C400.703 64.1191 401.604 66.524 402.287 69.3038C402.433 69.831 402.545 70.3631 402.624 70.9001C402.76 71.3601 402.867 71.8586 402.946 72.3956L403.567 76.6246L366.01 82.1377ZM393.225 70.6341C392.601 68.257 391.687 66.2312 390.481 64.5567C389.342 62.8724 388.052 61.5533 386.609 60.5994C385.156 59.5784 383.613 58.8791 381.981 58.5016C380.415 58.1142 378.827 58.0388 377.216 58.2753C375.605 58.5118 374.072 59.0454 372.617 59.8762C371.161 60.7069 369.851 61.825 368.686 63.2303C367.588 64.6258 366.702 66.2987 366.028 68.2491C365.345 70.1323 365.013 72.3068 365.032 74.7726L393.225 70.6341Z" fill="#FF762E"/>
<path d="M328.332 49.7637C332.81 49.9672 336.813 51.0527 340.341 53.0202C341.834 53.8344 343.292 54.886 344.717 56.175C346.21 57.3963 347.499 58.9567 348.584 60.8564C349.738 62.6882 350.653 64.8592 351.332 67.3695C352.01 69.8798 352.35 72.7971 352.35 76.1215V76.9357C352.35 80.2601 352.01 83.2114 351.332 85.7895C350.653 88.2998 349.738 90.5047 348.584 92.4044C347.499 94.2362 346.21 95.7967 344.717 97.0857C343.292 98.3069 341.834 99.3246 340.341 100.139C336.813 102.038 332.81 103.09 328.332 103.294C326.501 103.226 324.669 102.886 322.837 102.276C321.277 101.733 319.614 100.885 317.85 99.7317C316.086 98.5105 314.458 96.8143 312.965 94.6433V127.005H303.399V50.5778H312.965V58.5157C314.458 56.2768 316.086 54.5807 317.85 53.4273C319.614 52.2061 321.277 51.3241 322.837 50.7814C324.669 50.1707 326.501 49.8315 328.332 49.7637ZM343.089 76.1215C343.089 73.0685 342.648 70.4225 341.766 68.1837C340.952 65.8769 339.832 63.9772 338.407 62.4847C337.051 60.9242 335.456 59.7708 333.624 59.0245C331.86 58.2782 330.029 57.9051 328.129 57.9051C326.229 57.9051 324.363 58.2782 322.532 59.0245C320.768 59.7708 319.173 60.9242 317.749 62.4847C316.324 63.9772 315.17 65.8769 314.288 68.1837C313.406 70.4225 312.965 73.0685 312.965 76.1215V76.9357C312.965 79.9887 313.406 82.6686 314.288 84.9754C315.17 87.2142 316.324 89.1139 317.749 90.6744C319.173 92.1669 320.768 93.2864 322.532 94.0327C324.363 94.779 326.229 95.1521 328.129 95.1521C330.029 95.1521 331.86 94.779 333.624 94.0327C335.456 93.2864 337.051 92.1669 338.407 90.6744C339.832 89.1139 340.952 87.2142 341.766 84.9754C342.648 82.6686 343.089 79.9887 343.089 76.9357V76.1215Z" fill="#FF762E"/>
<path d="M274.412 63.2985C274.412 64.6554 275.022 65.8088 276.244 66.7586C277.533 67.7085 279.127 68.6244 281.027 69.5064C282.926 70.3883 284.996 71.3382 287.235 72.3559C289.473 73.3057 291.543 74.493 293.442 75.9177C295.342 77.2746 296.902 78.9708 298.124 81.0061C299.413 82.9736 300.057 85.3821 300.057 88.2316C300.057 90.8098 299.548 93.0826 298.531 95.0501C297.513 96.9497 296.156 98.5441 294.46 99.8332C292.832 101.054 290.898 101.97 288.659 102.581C286.488 103.259 284.215 103.599 281.841 103.599C277.838 103.599 273.937 102.717 270.138 100.953C266.406 99.1886 263.489 96.5088 261.385 92.913L266.881 86.7051C268.781 89.7582 270.986 91.9971 273.496 93.4218C276.006 94.7787 278.449 95.4572 280.823 95.4572C283.198 95.4572 285.233 94.8126 286.929 93.5236C288.625 92.2345 289.473 90.4705 289.473 88.2316C289.473 86.2641 288.829 84.7037 287.54 83.5503C286.319 82.3969 284.792 81.4132 282.96 80.599C281.128 79.7171 279.093 78.9029 276.854 78.1566C274.683 77.3425 272.682 76.3587 270.85 75.2053C269.018 73.9841 267.458 72.4576 266.169 70.6258C264.947 68.7261 264.337 66.2498 264.337 63.1967C264.337 60.9579 264.778 58.9903 265.66 57.2942C266.61 55.5981 267.831 54.2073 269.323 53.1217C270.884 51.9684 272.648 51.1203 274.615 50.5775C276.583 49.9669 278.618 49.6616 280.721 49.6616C283.774 49.6616 286.726 50.2383 289.575 51.3917C292.493 52.4772 294.867 54.1733 296.699 56.4801L291.305 62.0773C289.609 60.1776 287.879 58.7868 286.115 57.9048C284.351 57.0228 282.689 56.5818 281.128 56.5818C279.161 56.5818 277.533 57.1924 276.244 58.4137C275.022 59.567 274.412 61.1953 274.412 63.2985Z" fill="#FF762E"/>
<path d="M252.722 47.5739C251.162 47.5739 249.839 47.0311 248.753 45.9456C247.668 44.86 247.125 43.5371 247.125 41.9766C247.125 40.4162 247.668 39.0932 248.753 38.0077C249.839 36.9222 251.162 36.3794 252.722 36.3794C254.283 36.3794 255.606 36.9222 256.691 38.0077C257.844 39.0932 258.421 40.4162 258.421 41.9766C258.421 43.5371 257.844 44.86 256.691 45.9456C255.606 47.0311 254.283 47.5739 252.722 47.5739ZM247.939 102.58V50.5768H257.607V102.58H247.939Z" fill="#FF762E"/>
<path d="M243.007 50.5771L229.927 102.581H218.834L206.961 69.8031L195.224 102.581H184.131L171 50.5771H181.075L190.227 89.3858L201.534 57.8027H212.525L223.494 88.8739L232.932 50.5771H243.007Z" fill="#FF762E"/>
<path d="M429.042 50.6791C430.97 50.2573 432.765 50.0768 434.425 50.1367V58.8967C433.349 58.9788 432.267 59.0883 431.179 59.2277C428.601 59.4991 426.261 60.2458 424.157 61.4669C422.054 62.6203 420.324 64.35 418.967 66.6568C417.61 68.9635 416.932 72.1184 416.932 76.1213V102.581H407.365V50.5776H416.932V59.6345C418.492 56.7852 420.358 54.7164 422.529 53.4273C424.768 52.0704 426.939 51.154 429.042 50.6791Z" fill="#FF762E"/>
</svg>
