<svg width="365" height="349" viewBox="0 0 365 349" fill="none" xmlns="http://www.w3.org/2000/svg">
<path d="M155.354 0.7708C202.729 -0.597917 288.385 -4.81134 329.401 39.5163C345.232 56.6237 357.41 84.8624 362.045 118.259C367.204 155.424 365.975 197.767 355.433 231.512C345.123 264.515 328.135 286.804 308.531 296.505C308.189 296.674 307.972 297.018 307.971 297.4C307.96 301.463 303.374 349.252 302.752 348.999C273.043 340.521 237.412 328.791 205.346 319.947C201.682 318.932 191.916 319.546 187.921 319.62C178.618 319.844 169.316 319.971 160.012 320.006C125.15 319.976 70.1585 313.874 38.892 284.274C32.8184 278.525 27.2114 271.186 22.234 262.481C7.53702 236.943 0.688044 201.697 0.0454008 164.656C-0.598398 127.527 5.59407 90.9886 19.3055 63.7886C48.2713 6.32213 115.883 2.64232 155.354 0.7708ZM144.896 120.428C144.89 120.338 144.87 120.248 144.84 120.163C136.907 98.1687 123.149 96.57 110.107 98.3935C110.049 98.4014 109.993 98.4147 109.938 98.4329C102.81 100.768 93.8646 105.046 89.6318 117.322C87.1985 124.394 87.7326 197.754 89.0673 208.236C89.7541 213.621 93.7265 219.106 96.1848 221.719C103.969 229.99 113.896 231.257 122.621 229.809C130.47 227.575 138.745 223.742 143.722 210.935C144.118 209.909 144.502 208.857 144.864 207.781C144.895 207.689 144.912 207.594 144.915 207.498C145.504 189.339 145.389 170.958 145.344 152.752C145.32 143.248 145.544 129.537 144.896 120.428ZM276.326 124.445C274.219 98.7421 251.709 97.2023 241.77 98.3127C241.708 98.3194 241.651 98.3315 241.591 98.3503C233.636 100.849 220.628 106.627 219.895 125.697C219.749 138.005 219.777 151.209 220.032 163.517C220.28 175.651 219.1 192.64 220.085 204.137C222.191 228.753 244.706 231.376 254.208 229.774C261.949 227.589 275.657 221.171 276.457 202.785C276.653 190.751 276.855 177.497 276.617 165.492C276.371 152.991 277.311 136.436 276.326 124.445Z" fill="white"/>
</svg>
